<?xml version="1.0"?>
<!DOCTYPE svg PUBLIC "-//W3C//DTD SVG 1.1//EN" "http://www.w3.org/Graphics/SVG/1.1/DTD/svg11.dtd">
<svg version="1.1" xmlns="http://www.w3.org/2000/svg">
<g>
<path d="M229.60316036463442,257.86590150030304L228.05540566433598,258.8944380864009L229.610869935217,257.865206856053Z" stroke="#4bece9" stroke-width="1" fill="#4bece9"></path>
<path d="M126.70749339539027,231.1695652341702L128.0758253621296,233.5121371930971L128.10899987796995,231.1892468212523L126.38649491113213,230.8377568307758L127.77515210940746,230.37396601989013L124.32523608536113,226.6921199470528L125.2251532333686,231.11839310775707L126.73319196399902,231.1741961958366Z" stroke="#4bece9" stroke-width="1" fill="#4bece9"></path>
<path d="M123.35453106200413,226.43857479581973L123.12721554149239,228.1964878443689L124.14838320866284,225.69368461178618L122.84219505328646,224.2749895052976L123.36761396965952,226.4344069303199Z" stroke="#4bece9" stroke-width="1" fill="#4bece9"></path>
<path d="M123.13539235877698,220.1184698616586L123.87738012151628,221.56842395939515L121.21500841365199,217.8969975503071L121.98526460186088,223.93183524582062L123.76243743282994,222.43232985825404L123.1391303323928,220.10712400557622Z" stroke="#4bece9" stroke-width="1" fill="#4bece9"></path>
<path d="M124.13273044414663,225.16506033757153L125.36626173736559,226.28737389741315L125.79612870318432,224.2590126875487L123.41760936677103,223.7097806339187L124.13553392435851,225.16482878948815Z" stroke="#4bece9" stroke-width="1" fill="#4bece9"></path>
<path d="M104.9788863900081,156.40407841933282L106.24045248534567,157.30433736727267L104.9886985707496,156.3908801785837Z" stroke="#4bece9" stroke-width="1" fill="#4bece9"></path>
<path d="M129.45186689945155,228.20343428686843L131.16596142565373,229.23961195971586L131.20801362883168,233.22825924294932L132.7812332743878,228.1587455067881L127.60507430988787,225.32158684189434L129.39696541196923,227.2369525870997L127.77351674595054,230.01830816391376L129.45139965274953,228.20250809453526Z" stroke="#4bece9" stroke-width="1" fill="#4bece9"></path>
<path d="M120.68328166680229,224.90526338808885L121.87966684721405,227.5266192393303L120.1200157675691,221.59343115239344L120.68398253685521,224.85686983867546Z" stroke="#4bece9" stroke-width="1" fill="#4bece9"></path>
<path d="M270.1157856595404,279.1891644930448L273.11621035628497,279.0766321245524L270.5185523166445,277.10870496443385L272.54640300322416,272.3719258240004L280.0779525923896,269.08996329105304L277.08827456979054,260.60210520087014L274.7756370183559,260.2445949602274L271.0056570034554,267.71016826256187L261.0913828575588,268.72411731941077L258.0671285790134,271.38553098906635L258.4257404227806,273.20387808736143L251.78873464454998,274.0823715154695L251.59903248354732,276.3135688463204L243.78549950973886,279.980364293742L241.48150602229083,278.8524935799006L243.71891685470715,276.10008151350127L243.44557753405067,272.21817789667733L240.4689824191069,272.7512015844751L242.003420588399,268.41314824351497L238.55210282424673,265.8862640102671L235.00313049938129,269.47942716719365L234.16979600640553,278.38661883626514L232.31879819652409,279.18592281987844L231.32005837104845,277.18812595701183L232.51994790172512,269.18698193796325L230.89860184586536,270.0351425671566L231.30277024307534,268.711845270995L233.3210423722645,265.463688758212L240.488139533888,265.34837781271966L239.5494409096164,263.5457759840901L232.4641119208389,263.5358194165075L229.43939039559152,261.05200312675674L225.285333591666,263.29871417919L224.23729923913183,261.9388322858642L221.66323715794115,262.90091457205L227.38911186731693,258.3993882842674L215.63598832579032,255.93733751434857L214.65734010849968,253.57971493000608L214.19990558726437,254.89444494708493L149.70958128701045,254.88356218716896L151.08842630454424,258.2685636171928L149.16523887920738,261.70334788513L149.71145027381834,257.89739203963427L145.10696764918714,257.06080881460696L147.53548238271202,261.9580507767796L146.61126840620173,264.2941393893735L147.99361777400034,264.29159236045695L146.7551803904106,264.4201015466984L145.49548328188087,275.43113910079603L145.95992650364593,283.391762205264L149.08767592667922,290.17079544056105L150.86858673126412,289.9549926269088L150.53240272919174,292.5057263127384L154.65725661424372,300.028260443569L159.55680553117335,301.49326516672113L162.87192088169937,305.66738246469225L168.49430044658723,305.16677550855906L177.02669247138715,308.9574491805557L187.9077000436739,307.8219373799649L194.96990032070357,315.13515204347624L199.60452035761233,313.15448973877517L204.95145799168483,321.9452127219379L208.8980572599326,323.4493490711707L209.76082829513297,318.27077618776667L209.41880370928584,322.91053668128995L208.06682537711572,319.2655067537002L214.62930530638113,313.3434329747626L218.50978916629913,312.36097445724494L227.6140911543188,315.4060633009581L227.57717866486263,312.39640131399256L225.27925938454032,311.9962862260193L230.60166656675904,311.7098612469551L230.93481346526855,310.363640690545L230.86332471986606,311.9569230518553L235.12858623886206,311.21457989673826L237.08775166025117,313.43628375617305L240.99159785526808,312.7349246118033L243.53108368051247,315.46603425453753L242.9299707984192,318.1809355314394L245.55916799044314,323.2567010658501L248.5859921258494,325.3978261922904L249.52936321714074,320.95974407933704L246.13902114759645,309.88016829257737L247.6384158142403,305.8371072097642L257.7379532774707,299.5906345660983L256.7700517343256,297.53703461515215L259.5730646994849,297.026239543353L257.2543529409246,296.081523363416L259.4179387944286,295.7439262579387L259.0420388226882,293.89038385097916L260.0120429759922,296.5453141743017L258.94391701527303,293.29090586326913L256.73991432204804,292.4179695891609L258.2315994181093,293.07417685728365L256.8289248187747,290.2293771056405L258.3659328449276,290.47782819904046L255.88905807774816,289.0644586984683L258.1923506951432,290.03603445607007L257.5234870412633,286.35071516198303L259.0735779750716,285.4599496854591L259.01213503376164,292.74885180022216L261.16357247301426,288.86509579873166L259.9115849350672,285.27702669963816L261.60021451601165,287.37948329616427L263.7997783655678,281.596106819134L270.1162529062424,279.1789763773789Z" stroke="#4bece9" stroke-width="1" fill="#4bece9"></path>
<path d="M234.04784461718953,311.45353751872216L232.55639314447933,311.662393889875L234.06396462840775,311.45793693230524Z" stroke="#4bece9" stroke-width="1" fill="#4bece9"></path>
<path d="M60.1869821750468,217.05948813294657L61.09904773730569,216.05480099943026L60.192822758821514,217.01456780478273Z" stroke="#4bece9" stroke-width="1" fill="#4bece9"></path>
<path d="M259.5389556902406,298.2583068946873L260.05386155581914,296.60111726238136L259.5391893135916,298.25112890410446Z" stroke="#4bece9" stroke-width="1" fill="#4bece9"></path>
<path d="M90.86289627658435,206.52520808240044L94.96695768339832,205.3482491748957L93.87289953071945,207.5062773114181L100.28656138540521,210.737530814119L106.1418634312286,209.99217753391875L108.71499101901527,212.1029698614443L110.58374420357185,210.43698140197236L112.06234639197773,211.5935640781449L111.07996020107133,212.70568952232068L110.6500932352526,210.7118289768706L109.77260392893996,212.82447368906278L117.2644375484374,218.7812796804981L118.58043788455528,217.45589845158653L116.36311866032393,214.94568568033773L118.30522957709087,216.36692781574286L118.3659716483479,214.92878267025543L118.9808683081495,218.00675134179986L120.92368009496934,218.64350857092387L120.31252140878361,213.07547181137926L121.67057394807942,217.99100607213413L123.13025264505521,218.81740118149568L124.13950552132532,217.30793922634655L123.35873628232191,219.4263726406217L125.49265197025035,220.27661720256478L124.47241879648382,223.21982488961808L128.4662099816313,225.4285620563872L119.98895306766464,211.62598080980948L115.20691669628214,215.6764514312889L111.58855823617311,209.0523238637315L107.08616901592383,209.26812667738378L107.0896733661887,157.54908369133972L101.81796245113443,154.36691838230226L97.83818866704631,155.44685864289684L87.31252221161297,151.62075811415244L81.45862190589557,152.24802187186057L79.9674040565363,151.37392785733562L80.7888237586117,149.36825835963626L76.17195909637807,149.8364485841051L74.18802959978423,147.27228510944315L72.04383448441229,149.99876379051068L73.15985323208407,147.45613428759745L70.92547950323059,145.4324040393994L67.62017633344607,149.26614565489322L64.38309118215024,149.21126875914678L57.84467445803667,153.28234716004138L54.080067780208886,161.29692096792277L48.18528338806847,162.55121693525552L46.72653918449661,165.98322262619274L53.038107634800426,170.47803401955912L54.07002197611637,173.5265960845221L59.194082933345896,174.2617612490563L59.170954221598066,177.4212348459284L56.595256776950436,175.0416151936708L58.2563188024783,178.45000298010967L60.36944201216873,178.88809195374716L53.91676505786792,179.61793151236495L54.2921977829064,176.75923887572273L52.4164358978202,176.61220584281585L43.714199696851615,181.94846297095938L47.85867794338661,183.99187480623945L46.47352509537616,184.69416014294248L48.197431802319876,187.8427509798988L55.34981069283106,188.81177970858403L55.39887159653867,187.46115973859102L56.20370404069382,189.20263287322456L60.01199828515643,185.92993226360977L60.87897454067458,187.10503878644803L59.117220850870744,188.72078131184008L60.9063084727402,191.7651755113033L60.04423830759285,193.5047962612705L57.293089726352974,193.33761854511496L55.13978330029245,195.90479214486012L52.36176803368888,195.03857076516783L48.44530617771861,202.05910865136548L51.04296421735909,205.89609194002574L50.13720648557691,208.2930776985321L53.345322341350204,211.54933839423143L57.53932873829473,210.52033871196673L58.58339149386209,217.26463973476604L62.01344953307447,214.9192891988394L65.29889471802493,217.96854590805233L66.34459283704919,214.90933263125686L66.94290223893059,216.99094990028445L69.96225042710527,215.35112637422722L65.78179418451806,224.9064211285055L61.89617061087823,227.01188785011468L62.111337717138625,229.1659796692208L57.914527839982206,229.07961223414318L54.85966890245731,233.06223926721032L59.02330426377332,229.76893087818056L59.80781147639253,230.8426193405255L63.15119525238818,228.7917979665791L63.65769067733113,230.0007105095817L76.20606810562238,219.09549042956039L78.46497228632967,215.9348590922717L76.08738744332024,214.71413759701989L77.0169747569033,212.7897414765651L83.84368269613661,204.95855375067165L87.64870621368534,203.61626951167807L85.89092412084831,205.23247513323685L88.39536644344442,206.8377979948794L85.17253231655884,205.82199655336404L82.75312889372253,207.32428051793025L81.72284991586349,211.8959658749582L83.90489201409555,211.64427310839162L81.99945996343384,214.546033688531L86.68711250101693,210.90748710727422L87.15949891671558,212.05804953328075L87.37443239962491,210.12809625882616L89.71720736333702,210.93156810793923L90.86897048371004,208.64734626600855L89.0364289185567,207.0123852497012L91.41634999507602,204.67490734860732L90.85915830296854,206.5168723514009Z" stroke="#4bece9" stroke-width="1" fill="#4bece9"></path>
<path d="M32.223668801836034,208.18934415720585L34.15760290131836,209.24798199413505L32.203109946949034,208.16781018545717Z" stroke="#4bece9" stroke-width="1" fill="#4bece9"></path>
<path d="M94.67446124796083,208.41602973077397L95.96242678196012,207.84317977264564L94.65600500323274,208.40167374960828Z" stroke="#4bece9" stroke-width="1" fill="#4bece9"></path>
<path d="M64.34991666630984,332.867104263958L63.195116442374,333.10837736677524L64.34477695258812,332.8830810817069Z" stroke="#4bece9" stroke-width="1" fill="#4bece9"></path>
<path d="M233.14559123567216,267.93662228804675L232.52602210885084,269.14183006171623L233.14699297577812,267.9583878078787Z" stroke="#4bece9" stroke-width="1" fill="#4bece9"></path>
<path d="M229.8150567439809,261.71191516421266L231.5546162154409,260.30086114447363L229.82276631456358,261.6741728266319Z" stroke="#4bece9" stroke-width="1" fill="#4bece9"></path>
<path d="M22.504002907312803,244.65978811635213L21.388217782992008,245.26065539256206L22.50517102406778,244.63755950035366Z" stroke="#4bece9" stroke-width="1" fill="#4bece9"></path>
<path d="M21.532830637253877,244.57365222935798L20.116138636859933,244.45116329328278L21.543343688048374,244.6111630188554Z" stroke="#4bece9" stroke-width="1" fill="#4bece9"></path>
<path d="M95.1232517052096,208.7804864139164L93.7787493202711,209.4693419617869L95.06414499740956,208.77562390416674Z" stroke="#4bece9" stroke-width="1" fill="#4bece9"></path>
<path d="M840.1387730733165,240.67090928503538L841.6662025420788,240.8167845775256L840.2034867415402,240.6088543987061Z" stroke="#4bece9" stroke-width="1" fill="#4bece9"></path>
<path d="M71.07733468137307,336.68023810003655L70.5512148949471,335.5965930701089L71.07943729153197,336.6661136669542Z" stroke="#4bece9" stroke-width="1" fill="#4bece9"></path>
<path d="M149.95278319538943,257.5215895004094L150.5919766836938,258.7142936775797L149.94484000145582,257.5389556066582Z" stroke="#4bece9" stroke-width="1" fill="#4bece9"></path>
<path d="M30.75230893731084,243.77319050532813L32.42458488368612,243.62222115500487L30.73782428954954,243.77851611124436Z" stroke="#4bece9" stroke-width="1" fill="#4bece9"></path>
<path d="M69.02004745256887,335.33563838020973L70.3895475360631,335.2677947917976L69.01911295916489,335.3310074185434Z" stroke="#4bece9" stroke-width="1" fill="#4bece9"></path>
<path d="M62.87855680178464,231.33188044057613L62.19707748695137,232.8429632323084L62.88463100891035,231.31706136324368Z" stroke="#4bece9" stroke-width="1" fill="#4bece9"></path>
<path d="M92.58470037336916,209.31814106338038L90.96615779772128,211.7540268998842L92.58446675001824,209.30540591879796Z" stroke="#4bece9" stroke-width="1" fill="#4bece9"></path>
<path d="M41.9716031218288,240.39420932547048L44.49193183229214,238.13661551312146L41.99122748331189,240.37823250772166Z" stroke="#4bece9" stroke-width="1" fill="#4bece9"></path>
<path d="M126.49536339269277,227.50832694074816L127.55320992596843,228.51926587251404L126.5021384698714,227.48355129583334Z" stroke="#4bece9" stroke-width="1" fill="#4bece9"></path>
<path d="M90.93134791842397,209.63420419710926L91.44345030379066,208.2993294967818L90.96148533070149,209.5760856281965Z" stroke="#4bece9" stroke-width="1" fill="#4bece9"></path>
<path d="M52.845601993585944,232.69454091090168L51.384521556504176,234.61430606969003L55.574789979832964,233.62073324417312L52.842331266672126,232.67810099698616Z" stroke="#4bece9" stroke-width="1" fill="#4bece9"></path>
<path d="M38.67728024954076,195.08279644908163L40.16732998214512,196.44221524624078L42.391657906906026,194.6032603685303L35.25726801442095,192.0661880196166L35.28273295967874,194.2441292913043L38.679382859699665,195.060567833083Z" stroke="#4bece9" stroke-width="1" fill="#4bece9"></path>
<path d="M46.105568317569364,209.6298047835262L48.23527878517999,211.83854195029537L49.71411459693687,211.01631470643358L48.30466492042355,208.7024547098382L46.115847745012864,209.64578160127516Z" stroke="#4bece9" stroke-width="1" fill="#4bece9"></path>
<path d="M126.02601408055695,233.18241272245243L125.46041194781394,231.2281468992497L126.02110799018624,233.18773832836874Z" stroke="#4bece9" stroke-width="1" fill="#4bece9"></path>
<path d="M26.90710220339202,243.91188780723547L29.993266669949357,242.62818523332115L26.91013930695484,243.90864613406904Z" stroke="#4bece9" stroke-width="1" fill="#4bece9"></path>
<path d="M130.22609468462724,231.32354470957665L129.80066656247723,228.33634288669296L128.50966392491515,230.46519596471737L129.61073077812364,229.65570386543806L130.19525640229674,231.34091081582545Z" stroke="#4bece9" stroke-width="1" fill="#4bece9"></path>
<path d="M265.5669053924444,281.9739932911088L267.73189298605433,280.6550954085302L263.5105526570441,282.3034862136701L265.57601670313295,281.9874230799412Z" stroke="#4bece9" stroke-width="1" fill="#4bece9"></path>
<path d="M80.27602050319204,217.95465302305337L78.52991957790442,218.97415923390176L81.42918536367104,218.74122186208405L80.26457295899364,218.01115075538286Z" stroke="#4bece9" stroke-width="1" fill="#4bece9"></path>
<path d="M72.78745761060848,340.79160586742853L74.83259642516136,339.32335947110994L72.39099878398108,337.46703848715066L72.78278514358868,340.78373323259564Z" stroke="#4bece9" stroke-width="1" fill="#4bece9"></path>
<path d="M45.9422655952284,238.37464694277213L44.35362680850704,238.98153446914827L48.0430067673165,236.36017861790668L45.921005870288475,238.36816359643925Z" stroke="#4bece9" stroke-width="1" fill="#4bece9"></path>
<path d="M118.29448290294543,220.65589296303946L119.13879769341767,222.3144718838453L119.1577211848477,220.67418526162146L121.48414251399063,221.92176633453818L119.28130793752058,218.42631646877183L118.30569682379286,220.6248655198749Z" stroke="#4bece9" stroke-width="1" fill="#4bece9"></path>
<path d="M77.60850908160602,220.25809335589938L77.58421225310322,222.84170686956003L76.25022291895921,221.1599731404225L74.8568932536641,222.51753955291517L75.99650795978576,224.66862124693787L77.33820686451239,223.4096943179388L76.39296678641317,225.0911964989931L81.02665232991794,221.48020413965108L77.57883891603049,220.29884581856334Z" stroke="#4bece9" stroke-width="1" fill="#4bece9"></path>
</g>
</svg>